<svg width="14" height="14" viewBox="0 0 14 14" fill="none" xmlns="http://www.w3.org/2000/svg">
<circle cx="7" cy="7" r="7" fill="#E4F0FF"/>
<path d="M1.52002 9.61523V9.27148C1.52002 8.8776 1.59163 8.54997 1.73486 8.28857C1.87809 8.02718 2.12874 7.75684 2.48682 7.47754C2.91292 7.14095 3.18685 6.87956 3.30859 6.69336C3.43392 6.50716 3.49658 6.28516 3.49658 6.02734C3.49658 5.72656 3.39632 5.49561 3.1958 5.33447C2.99528 5.17334 2.70703 5.09277 2.33105 5.09277C1.99089 5.09277 1.67578 5.14111 1.38574 5.23779C1.0957 5.33447 0.812825 5.45085 0.537109 5.58691L0.0859375 4.6416C0.812825 4.23698 1.59163 4.03467 2.42236 4.03467C3.12419 4.03467 3.68099 4.20654 4.09277 4.55029C4.50456 4.89404 4.71045 5.36849 4.71045 5.97363C4.71045 6.24219 4.67106 6.4821 4.59229 6.69336C4.51351 6.90104 4.39355 7.09977 4.23242 7.28955C4.07487 7.47933 3.80094 7.7264 3.41064 8.03076C3.07764 8.29216 2.85384 8.50879 2.73926 8.68066C2.62826 8.85254 2.57275 9.0835 2.57275 9.37354V9.61523H1.52002ZM1.2998 11.3286C1.2998 10.7879 1.56299 10.5176 2.08936 10.5176C2.34717 10.5176 2.54411 10.5892 2.68018 10.7324C2.81624 10.8721 2.88428 11.0708 2.88428 11.3286C2.88428 11.5828 2.81445 11.7852 2.6748 11.9355C2.53874 12.0824 2.34359 12.1558 2.08936 12.1558C1.83512 12.1558 1.63997 12.0841 1.50391 11.9409C1.36784 11.7941 1.2998 11.59 1.2998 11.3286Z" transform="translate(5 -1)" fill="#2985F7"/>
</svg>
